<?xml version="1.0" encoding="utf-8" standalone="no"?>
<!DOCTYPE svg PUBLIC "-//W3C//DTD SVG 1.1//EN"
  "http://www.w3.org/Graphics/SVG/1.1/DTD/svg11.dtd">
<!-- Created with matplotlib (http://matplotlib.org/) -->
<svg height="486pt" version="1.1" viewBox="0 0 898 486" width="898pt" xmlns="http://www.w3.org/2000/svg" xmlns:xlink="http://www.w3.org/1999/xlink">
 <defs>
  <style type="text/css">
*{stroke-linecap:butt;stroke-linejoin:round;}
  </style>
 </defs>
 <g id="figure_1">
  <g id="patch_1">
   <path d="
M0 486.517
L898.701 486.517
L898.701 0
L0 0
z
" style="fill:none;"/>
  </g>
  <g id="axes_1">
   <g id="patch_2">
    <path clip-path="url(#pd87e511b0a)" d="
M624.545 238.839
L608.921 244.419
L608.921 238.85
L547.541 238.85
L547.541 238.828
L608.921 238.828
L608.921 233.259
z
" style="stroke:#000000;"/>
   </g>
   <g id="patch_3">
    <path clip-path="url(#pd87e511b0a)" d="
M620.145 257.784
L605.363 265.316
L604.651 259.793
L545.71 267.392
L545.707 267.37
L604.648 259.771
L603.936 254.248
z
" style="stroke:#000000;"/>
   </g>
   <g id="patch_4">
    <path clip-path="url(#pd87e511b0a)" d="
M607.858 277.724
L594.161 287.084
L592.748 281.697
L540.244 295.466
L540.239 295.444
L592.743 281.676
L591.33 276.289
z
" style="stroke:#000000;"/>
   </g>
   <g id="patch_5">
    <path clip-path="url(#pd87e511b0a)" d="
M589.736 298.912
L577.347 309.947
L575.258 304.786
L531.233 322.609
L531.225 322.588
L575.249 304.765
L573.159 299.603
z
" style="stroke:#000000;"/>
   </g>
   <g id="patch_6">
    <path clip-path="url(#pd87e511b0a)" d="
M567.741 320.815
L556.866 333.344
L554.133 328.492
L518.825 348.377
L518.814 348.357
L554.122 328.473
L551.389 323.62
z
" style="stroke:#000000;"/>
   </g>
   <g id="patch_7">
    <path clip-path="url(#pd87e511b0a)" d="
M543.152 342.533
L533.969 356.349
L530.638 351.886
L503.223 372.346
L503.21 372.328
L530.624 351.869
L527.294 347.406
z
" style="stroke:#000000;"/>
   </g>
   <g id="patch_8">
    <path clip-path="url(#pd87e511b0a)" d="
M516.634 363.167
L509.292 378.044
L505.418 374.044
L484.685 394.123
L484.669 394.107
L505.403 374.028
L501.529 370.028
z
" style="stroke:#000000;"/>
   </g>
   <g id="patch_9">
    <path clip-path="url(#pd87e511b0a)" d="
M488.517 381.979
L483.138 397.674
L478.784 394.202
L463.513 413.351
L463.495 413.337
L478.766 394.188
L474.413 390.716
z
" style="stroke:#000000;"/>
   </g>
   <g id="patch_10">
    <path clip-path="url(#pd87e511b0a)" d="
M459.019 398.41
L455.691 414.663
L450.929 411.777
L440.056 429.713
L440.037 429.701
L450.91 411.765
L446.148 408.878
z
" style="stroke:#000000;"/>
   </g>
   <g id="patch_11">
    <path clip-path="url(#pd87e511b0a)" d="
M428.362 412.048
L427.14 428.593
L422.048 426.339
L414.699 442.94
L414.679 442.931
L422.028 426.33
L416.935 424.076
z
" style="stroke:#000000;"/>
   </g>
   <g id="patch_12">
    <path clip-path="url(#pd87e511b0a)" d="
M396.815 422.599
L397.719 439.165
L392.381 437.58
L387.859 452.817
L387.837 452.811
L392.359 437.574
L387.021 435.989
z
" style="stroke:#000000;"/>
   </g>
   <g id="patch_13">
    <path clip-path="url(#pd87e511b0a)" d="
M364.704 429.862
L367.718 446.176
L362.221 445.287
L359.975 459.18
L359.953 459.176
L362.199 445.284
L356.701 444.395
z
" style="stroke:#000000;"/>
   </g>
   <g id="patch_14">
    <path clip-path="url(#pd87e511b0a)" d="
M332.4 433.716
L337.476 449.511
L331.91 449.332
L331.506 461.925
L331.484 461.924
L331.888 449.331
L326.322 449.153
z
" style="stroke:#000000;"/>
   </g>
   <g id="patch_15">
    <path clip-path="url(#pd87e511b0a)" d="
M300.132 432.22
L307.186 447.236
L301.643 447.771
L302.92 461.007
L302.898 461.009
L301.621 447.773
L296.078 448.307
z
" style="stroke:#000000;"/>
   </g>
   <g id="patch_16">
    <path clip-path="url(#pd87e511b0a)" d="
M267.875 426.651
L276.791 440.641
L271.362 441.88
L274.685 456.44
L274.664 456.445
L271.34 441.885
L265.911 443.124
z
" style="stroke:#000000;"/>
   </g>
   <g id="patch_17">
    <path clip-path="url(#pd87e511b0a)" d="
M236.001 417.724
L246.634 430.459
L241.408 432.382
L247.266 448.301
L247.245 448.309
L241.387 432.39
L236.161 434.313
z
" style="stroke:#000000;"/>
   </g>
   <g id="patch_18">
    <path clip-path="url(#pd87e511b0a)" d="
M204.863 405.599
L217.037 416.87
L212.099 419.446
L221.113 436.723
L221.093 436.733
L212.079 419.456
L207.142 422.032
z
" style="stroke:#000000;"/>
   </g>
   <g id="patch_19">
    <path clip-path="url(#pd87e511b0a)" d="
M174.755 390.521
L188.271 400.143
L183.703 403.329
L196.654 421.895
L196.636 421.908
L183.685 403.342
L179.117 406.528
z
" style="stroke:#000000;"/>
   </g>
   <g id="patch_20">
    <path clip-path="url(#pd87e511b0a)" d="
M145.922 372.84
L160.557 380.654
L156.434 384.398
L174.292 404.062
L174.275 404.077
L156.418 384.413
L152.295 388.157
z
" style="stroke:#000000;"/>
   </g>
   <g id="patch_21">
    <path clip-path="url(#pd87e511b0a)" d="
M118.573 353.036
L134.087 358.915
L130.477 363.155
L154.394 383.515
L154.379 383.532
L130.463 363.172
L126.853 367.412
z
" style="stroke:#000000;"/>
   </g>
   <g id="patch_22">
    <path clip-path="url(#pd87e511b0a)" d="
M92.9643 331.756
L109.103 335.603
L106.065 340.27
L137.286 360.593
L137.274 360.612
L106.053 340.289
L103.015 344.956
z
" style="stroke:#000000;"/>
   </g>
   <g id="patch_23">
    <path clip-path="url(#pd87e511b0a)" d="
M69.5576 309.827
L86.0554 311.579
L83.6391 316.596
L123.25 335.672
L123.24 335.692
L83.6295 316.616
L81.2132 321.634
z
" style="stroke:#000000;"/>
   </g>
   <g id="patch_24">
    <path clip-path="url(#pd87e511b0a)" d="
M49.2921 288.181
L65.8784 287.808
L64.1236 293.093
L112.516 309.161
L112.508 309.182
L64.1166 293.115
L62.3618 298.4
z
" style="stroke:#000000;"/>
   </g>
   <g id="patch_25">
    <path clip-path="url(#pd87e511b0a)" d="
M33.8121 267.592
L50.2146 265.101
L49.1501 270.567
L105.259 281.495
L105.255 281.517
L49.1458 270.589
L48.0813 276.055
z
" style="stroke:#000000;"/>
   </g>
   <g id="patch_26">
    <path clip-path="url(#pd87e511b0a)" d="
M25.2534 248.238
L41.2028 243.67
L40.846 249.228
L101.601 253.128
L101.599 253.151
L40.8445 249.25
L40.4877 254.807
z
" style="stroke:#000000;"/>
   </g>
   <g id="patch_27">
    <path clip-path="url(#pd87e511b0a)" d="
M25.2534 229.44
L40.4877 222.871
L40.8445 228.428
L101.599 224.527
L101.601 224.55
L40.846 228.45
L41.2028 234.008
z
" style="stroke:#000000;"/>
   </g>
   <g id="patch_28">
    <path clip-path="url(#pd87e511b0a)" d="
M33.8121 210.086
L48.0813 201.623
L49.1458 207.089
L105.255 196.162
L105.259 196.183
L49.1501 207.111
L50.2146 212.577
z
" style="stroke:#000000;"/>
   </g>
   <g id="patch_29">
    <path clip-path="url(#pd87e511b0a)" d="
M49.2921 189.497
L62.3618 179.278
L64.1166 184.564
L112.508 168.496
L112.516 168.517
L64.1236 184.585
L65.8784 189.87
z
" style="stroke:#000000;"/>
   </g>
   <g id="patch_30">
    <path clip-path="url(#pd87e511b0a)" d="
M69.5576 167.851
L81.2132 156.044
L83.6295 161.062
L123.24 141.986
L123.25 142.006
L83.6391 161.082
L86.0554 166.099
z
" style="stroke:#000000;"/>
   </g>
   <g id="patch_31">
    <path clip-path="url(#pd87e511b0a)" d="
M92.9643 145.922
L103.015 132.722
L106.053 137.389
L137.274 117.066
L137.286 117.085
L106.065 137.408
L109.103 142.075
z
" style="stroke:#000000;"/>
   </g>
   <g id="patch_32">
    <path clip-path="url(#pd87e511b0a)" d="
M118.573 124.643
L126.853 110.266
L130.463 114.506
L154.379 94.146
L154.394 94.163
L130.477 114.523
L134.087 118.764
z
" style="stroke:#000000;"/>
   </g>
   <g id="patch_33">
    <path clip-path="url(#pd87e511b0a)" d="
M145.922 104.839
L152.295 89.521
L156.418 93.265
L174.275 73.6015
L174.292 73.6165
L156.434 93.28
L160.557 97.0239
z
" style="stroke:#000000;"/>
   </g>
   <g id="patch_34">
    <path clip-path="url(#pd87e511b0a)" d="
M174.755 87.1569
L179.117 71.1501
L183.685 74.3362
L196.636 55.7702
L196.654 55.783
L183.703 74.3489
L188.271 77.535
z
" style="stroke:#000000;"/>
   </g>
   <g id="patch_35">
    <path clip-path="url(#pd87e511b0a)" d="
M204.863 72.0792
L207.142 55.646
L212.079 58.2218
L221.093 40.9449
L221.113 40.9553
L212.099 58.2321
L217.037 60.8079
z
" style="stroke:#000000;"/>
   </g>
   <g id="patch_36">
    <path clip-path="url(#pd87e511b0a)" d="
M236.001 59.9544
L236.161 43.3647
L241.387 45.288
L247.245 29.3691
L247.266 29.3768
L241.408 45.2957
L246.634 47.219
z
" style="stroke:#000000;"/>
   </g>
   <g id="patch_37">
    <path clip-path="url(#pd87e511b0a)" d="
M267.875 51.0276
L265.911 34.5537
L271.34 35.7928
L274.664 21.2327
L274.685 21.2376
L271.362 35.7978
L276.791 37.037
z
" style="stroke:#000000;"/>
   </g>
   <g id="patch_38">
    <path clip-path="url(#pd87e511b0a)" d="
M300.132 45.4583
L296.078 29.3707
L301.621 29.9054
L302.898 16.6694
L302.92 16.6715
L301.643 29.9076
L307.186 30.4423
z
" style="stroke:#000000;"/>
   </g>
   <g id="patch_39">
    <path clip-path="url(#pd87e511b0a)" d="
M332.4 43.9623
L326.322 28.5252
L331.888 28.3467
L331.484 15.7541
L331.506 15.7534
L331.91 28.346
L337.476 28.1675
z
" style="stroke:#000000;"/>
   </g>
   <g id="patch_40">
    <path clip-path="url(#pd87e511b0a)" d="
M364.704 47.8162
L356.701 33.2831
L362.199 32.3943
L359.953 18.5019
L359.975 18.4983
L362.221 32.3907
L367.718 31.5019
z
" style="stroke:#000000;"/>
   </g>
   <g id="patch_41">
    <path clip-path="url(#pd87e511b0a)" d="
M396.815 55.0795
L387.021 41.6889
L392.359 40.1044
L387.837 24.8676
L387.859 24.8612
L392.381 40.0981
L397.719 38.5136
z
" style="stroke:#000000;"/>
   </g>
   <g id="patch_42">
    <path clip-path="url(#pd87e511b0a)" d="
M428.362 65.6302
L416.935 53.6021
L422.028 51.3479
L414.679 34.7467
L414.699 34.7376
L422.048 51.3389
L427.14 49.0847
z
" style="stroke:#000000;"/>
   </g>
   <g id="patch_43">
    <path clip-path="url(#pd87e511b0a)" d="
M459.019 79.268
L446.148 68.7999
L450.91 65.9131
L440.037 47.977
L440.056 47.9654
L450.929 65.9015
L455.691 63.0146
z
" style="stroke:#000000;"/>
   </g>
   <g id="patch_44">
    <path clip-path="url(#pd87e511b0a)" d="
M488.517 95.6989
L474.413 86.9626
L478.766 83.4905
L463.495 64.3412
L463.513 64.3273
L478.784 83.4766
L483.138 80.0045
z
" style="stroke:#000000;"/>
   </g>
   <g id="patch_45">
    <path clip-path="url(#pd87e511b0a)" d="
M516.634 114.512
L501.529 107.651
L505.403 103.65
L484.669 83.5707
L484.685 83.5547
L505.418 103.634
L509.292 99.6338
z
" style="stroke:#000000;"/>
   </g>
   <g id="patch_46">
    <path clip-path="url(#pd87e511b0a)" d="
M543.152 135.146
L527.294 130.273
L530.624 125.81
L503.21 105.35
L503.223 105.332
L530.638 125.792
L533.969 121.329
z
" style="stroke:#000000;"/>
   </g>
   <g id="patch_47">
    <path clip-path="url(#pd87e511b0a)" d="
M567.741 156.863
L551.389 154.058
L554.122 149.206
L518.814 129.321
L518.825 129.301
L554.133 149.186
L556.866 144.334
z
" style="stroke:#000000;"/>
   </g>
   <g id="patch_48">
    <path clip-path="url(#pd87e511b0a)" d="
M589.736 178.766
L573.159 178.075
L575.249 172.913
L531.225 155.09
L531.233 155.069
L575.258 172.893
L577.347 167.731
z
" style="stroke:#000000;"/>
   </g>
   <g id="patch_49">
    <path clip-path="url(#pd87e511b0a)" d="
M607.858 199.955
L591.33 201.389
L592.743 196.002
L540.239 182.234
L540.244 182.213
L592.748 195.981
L594.161 190.594
z
" style="stroke:#000000;"/>
   </g>
   <g id="patch_50">
    <path clip-path="url(#pd87e511b0a)" d="
M620.145 219.894
L603.936 223.431
L604.648 217.907
L545.707 210.308
L545.71 210.286
L604.651 217.885
L605.363 212.362
z
" style="stroke:#000000;"/>
   </g>
   <g id="patch_51">
    <path clip-path="url(#pd87e511b0a)" d="
M624.545 238.839
L608.921 244.419
L608.921 238.85
L547.541 238.85
L547.541 238.828
L608.921 238.828
L608.921 233.259
z
" style="stroke:#000000;"/>
   </g>
   <g id="line2d_1">
    <path clip-path="url(#pd87e511b0a)" d="
M547.541 238.839
L545.709 267.381
L540.241 295.455
L531.229 322.599
L518.82 348.367
L503.217 372.337
L484.677 394.115
L463.504 413.344
L440.046 429.707
L414.689 442.936
L387.848 452.814
L359.964 459.178
L331.495 461.924
L302.909 461.008
L274.675 456.443
L247.256 448.305
L221.103 436.728
L196.645 421.902
L174.284 404.069
L154.387 383.524
L137.28 360.602
L123.245 335.682
L112.512 309.171
L105.257 281.506
L101.6 253.14
L101.6 224.539
L105.257 196.172
L112.512 168.507
L123.245 141.996
L137.28 117.076
L154.387 94.1545
L174.284 73.609
L196.645 55.7766
L221.103 40.9501
L247.256 29.3729
L274.675 21.2352
L302.909 16.6704
L331.495 15.7537
L359.964 18.5001
L387.848 24.8644
L414.689 34.7422
L440.046 47.9712
L463.504 64.3343
L484.677 83.5627
L503.217 105.341
L518.82 129.311
L531.229 155.079
L540.241 182.223
L545.709 210.297
L547.541 238.839" style="fill:none;stroke:#0000ff;stroke-linecap:square;stroke-width:3.0;"/>
   </g>
   <g id="text_1">
    <!-- + -->
    <defs>
     <path d="
M46 62.7031
L46 35.5
L73.1875 35.5
L73.1875 27.2031
L46 27.2031
L46 0
L37.7969 0
L37.7969 27.2031
L10.5938 27.2031
L10.5938 35.5
L37.7969 35.5
L37.7969 62.7031
z
" id="BitstreamVeraSans-Roman-2b"/>
    </defs>
    <g transform="translate(314.9521875 247.1171875)scale(0.3 -0.3)">
     <use xlink:href="#BitstreamVeraSans-Roman-2b"/>
    </g>
   </g>
   <g id="patch_52">
    <path d="
M786.036 238.839
L782.436 232.839
Q826.59 235.539 870.744 237.039
L868.342 232.839
Q874.343 234.639 880.344 238.839
Q874.343 243.039 868.342 244.839
L870.744 240.639
Q826.59 242.139 782.436 244.839
L786.036 238.839
z
" style="stroke:#000000;stroke-linecap:round;"/>
   </g>
   <g id="text_2">
    <!-- Satellite -->
    <defs>
     <path d="
M9.42188 75.9844
L18.4062 75.9844
L18.4062 0
L9.42188 0
z
" id="BitstreamVeraSans-Roman-6c"/>
     <path d="
M53.5156 70.5156
L53.5156 60.8906
Q47.9062 63.5781 42.9219 64.8906
Q37.9375 66.2188 33.2969 66.2188
Q25.25 66.2188 20.875 63.0938
Q16.5 59.9688 16.5 54.2031
Q16.5 49.3594 19.4062 46.8906
Q22.3125 44.4375 30.4219 42.9219
L36.375 41.7031
Q47.4062 39.5938 52.6562 34.2969
Q57.9062 29 57.9062 20.125
Q57.9062 9.51562 50.7969 4.04688
Q43.7031 -1.42188 29.9844 -1.42188
Q24.8125 -1.42188 18.9688 -0.25
Q13.1406 0.921875 6.89062 3.21875
L6.89062 13.375
Q12.8906 10.0156 18.6562 8.29688
Q24.4219 6.59375 29.9844 6.59375
Q38.4219 6.59375 43.0156 9.90625
Q47.6094 13.2344 47.6094 19.3906
Q47.6094 24.75 44.3125 27.7812
Q41.0156 30.8125 33.5 32.3281
L27.4844 33.5
Q16.4531 35.6875 11.5156 40.375
Q6.59375 45.0625 6.59375 53.4219
Q6.59375 63.0938 13.4062 68.6562
Q20.2188 74.2188 32.1719 74.2188
Q37.3125 74.2188 42.625 73.2812
Q47.9531 72.3594 53.5156 70.5156" id="BitstreamVeraSans-Roman-53"/>
     <path d="
M9.42188 54.6875
L18.4062 54.6875
L18.4062 0
L9.42188 0
z

M9.42188 75.9844
L18.4062 75.9844
L18.4062 64.5938
L9.42188 64.5938
z
" id="BitstreamVeraSans-Roman-69"/>
     <path d="
M56.2031 29.5938
L56.2031 25.2031
L14.8906 25.2031
Q15.4844 15.9219 20.4844 11.0625
Q25.4844 6.20312 34.4219 6.20312
Q39.5938 6.20312 44.4531 7.46875
Q49.3125 8.73438 54.1094 11.2812
L54.1094 2.78125
Q49.2656 0.734375 44.1875 -0.34375
Q39.1094 -1.42188 33.8906 -1.42188
Q20.7969 -1.42188 13.1562 6.1875
Q5.51562 13.8125 5.51562 26.8125
Q5.51562 40.2344 12.7656 48.1094
Q20.0156 56 32.3281 56
Q43.3594 56 49.7812 48.8906
Q56.2031 41.7969 56.2031 29.5938
M47.2188 32.2344
Q47.125 39.5938 43.0938 43.9844
Q39.0625 48.3906 32.4219 48.3906
Q24.9062 48.3906 20.3906 44.1406
Q15.875 39.8906 15.1875 32.1719
z
" id="BitstreamVeraSans-Roman-65"/>
     <path d="
M18.3125 70.2188
L18.3125 54.6875
L36.8125 54.6875
L36.8125 47.7031
L18.3125 47.7031
L18.3125 18.0156
Q18.3125 11.3281 20.1406 9.42188
Q21.9688 7.51562 27.5938 7.51562
L36.8125 7.51562
L36.8125 0
L27.5938 0
Q17.1875 0 13.2344 3.875
Q9.28125 7.76562 9.28125 18.0156
L9.28125 47.7031
L2.6875 47.7031
L2.6875 54.6875
L9.28125 54.6875
L9.28125 70.2188
z
" id="BitstreamVeraSans-Roman-74"/>
     <path d="
M34.2812 27.4844
Q23.3906 27.4844 19.1875 25
Q14.9844 22.5156 14.9844 16.5
Q14.9844 11.7188 18.1406 8.90625
Q21.2969 6.10938 26.7031 6.10938
Q34.1875 6.10938 38.7031 11.4062
Q43.2188 16.7031 43.2188 25.4844
L43.2188 27.4844
z

M52.2031 31.2031
L52.2031 0
L43.2188 0
L43.2188 8.29688
Q40.1406 3.32812 35.5469 0.953125
Q30.9531 -1.42188 24.3125 -1.42188
Q15.9219 -1.42188 10.9531 3.29688
Q6 8.01562 6 15.9219
Q6 25.1406 12.1719 29.8281
Q18.3594 34.5156 30.6094 34.5156
L43.2188 34.5156
L43.2188 35.4062
Q43.2188 41.6094 39.1406 45
Q35.0625 48.3906 27.6875 48.3906
Q23 48.3906 18.5469 47.2656
Q14.1094 46.1406 10.0156 43.8906
L10.0156 52.2031
Q14.9375 54.1094 19.5781 55.0469
Q24.2188 56 28.6094 56
Q40.4844 56 46.3438 49.8438
Q52.2031 43.7031 52.2031 31.2031" id="BitstreamVeraSans-Roman-61"/>
    </defs>
    <g transform="translate(659.14125 247.1171875)scale(0.3 -0.3)">
     <use xlink:href="#BitstreamVeraSans-Roman-53"/>
     <use x="63.4765625" xlink:href="#BitstreamVeraSans-Roman-61"/>
     <use x="124.755859375" xlink:href="#BitstreamVeraSans-Roman-74"/>
     <use x="163.96484375" xlink:href="#BitstreamVeraSans-Roman-65"/>
     <use x="225.48828125" xlink:href="#BitstreamVeraSans-Roman-6c"/>
     <use x="253.271484375" xlink:href="#BitstreamVeraSans-Roman-6c"/>
     <use x="281.0546875" xlink:href="#BitstreamVeraSans-Roman-69"/>
     <use x="308.837890625" xlink:href="#BitstreamVeraSans-Roman-74"/>
     <use x="348.046875" xlink:href="#BitstreamVeraSans-Roman-65"/>
    </g>
   </g>
  </g>
 </g>
 <defs>
  <clipPath id="pd87e511b0a">
   <rect height="446.4" width="848.16" x="34.18125" y="15.6390625"/>
  </clipPath>
 </defs>
</svg>
